<svg width="22" height="22" viewBox="0 0 22 22" fill="none" xmlns="http://www.w3.org/2000/svg">
<path d="M9.16658 5.5C9.16658 9.55011 12.4498 12.8333 16.4999 12.8333C17.8186 12.8333 19.056 12.4853 20.1252 11.876C19.6842 16.5277 15.767 20.1667 10.9999 20.1667C5.93731 20.1667 1.83325 16.0626 1.83325 11C1.83325 6.23286 5.47224 2.31565 10.124 1.87465C9.51464 2.94389 9.16658 4.1813 9.16658 5.5ZM3.66659 11C3.66659 15.0501 6.94983 18.3333 10.9999 18.3333C13.7182 18.3333 16.111 16.8472 17.3773 14.625C17.0872 14.6527 16.7945 14.6667 16.4999 14.6667C11.4374 14.6667 7.33325 10.5626 7.33325 5.5C7.33325 5.20541 7.34722 4.91272 7.37483 4.62269C5.15268 5.88891 3.66659 8.2817 3.66659 11ZM16.6504 2.10012L17.4166 2.29167V3.20833L16.6504 3.39988C15.9936 3.56409 15.4807 4.07697 15.3165 4.73382L15.1249 5.5H14.2083L14.0167 4.73382C13.8525 4.07697 13.3396 3.56409 12.6827 3.39988L11.9166 3.20833V2.29167L12.6827 2.10012C13.3396 1.93591 13.8525 1.42303 14.0167 0.766177L14.2083 0H15.1249L15.3165 0.766177C15.4807 1.42303 15.9936 1.93591 16.6504 2.10012ZM21.2338 6.68345L21.9999 6.875V7.79167L21.2338 7.98321C20.5769 8.14742 20.064 8.6603 19.8998 9.31718L19.7083 10.0833H18.7916L18.6 9.31718C18.4358 8.6603 17.923 8.14742 17.2661 7.98321L16.4999 7.79167V6.875L17.2661 6.68345C17.923 6.51924 18.4358 6.00637 18.6 5.34951L18.7916 4.58333H19.7083L19.8998 5.34951C20.064 6.00637 20.5769 6.51924 21.2338 6.68345Z" fill="white"/>
</svg>
