<svg width="30" height="30" viewBox="0 0 30 30" fill="none" xmlns="http://www.w3.org/2000/svg">
<path fill-rule="evenodd" clip-rule="evenodd" d="M15.0103 2.70831C8.09245 2.70831 2.5 8.34199 2.5 15.3116C2.5 20.8828 6.08327 25.5987 11.0542 27.2678C11.6757 27.3933 11.9034 26.9966 11.9034 26.663C11.9034 26.3708 11.8829 25.3693 11.8829 24.3257C8.40281 25.0771 7.67812 22.8233 7.67812 22.8233C7.11885 21.3627 6.29018 20.9873 6.29018 20.9873C5.15116 20.2152 6.37315 20.2152 6.37315 20.2152C7.63663 20.2987 8.29961 21.5089 8.29961 21.5089C9.4179 23.4285 11.2199 22.8861 11.9449 22.5522C12.0483 21.7384 12.3799 21.175 12.732 20.8621C9.95642 20.5699 7.03613 19.4849 7.03613 14.6438C7.03613 13.2666 7.53292 12.1399 8.3201 11.2636C8.1959 10.9506 7.76083 9.65668 8.44455 7.92484C8.44455 7.92484 9.50086 7.59092 11.8826 9.21854C12.9023 8.94266 13.954 8.80231 15.0103 8.80113C16.0667 8.80113 17.1435 8.94735 18.1378 9.21854C20.5198 7.59092 21.5761 7.92484 21.5761 7.92484C22.2599 9.65668 21.8245 10.9506 21.7003 11.2636C22.5083 12.1399 22.9846 13.2666 22.9846 14.6438C22.9846 19.4849 20.0643 20.5489 17.2679 20.8621C17.7237 21.2585 18.1171 22.0095 18.1171 23.199C18.1171 24.8891 18.0966 26.2455 18.0966 26.6627C18.0966 26.9966 18.3245 27.3933 18.9457 27.2681C23.9167 25.5984 27.4999 20.8828 27.4999 15.3116C27.5204 8.34199 21.9075 2.70831 15.0103 2.70831Z" fill="black"/>
</svg>
