<svg width="30" height="29" viewBox="0 0 30 29" fill="none" xmlns="http://www.w3.org/2000/svg">
<path d="M22.4928 0L7.50723 0C3.36716 0 0 3.36707 0 7.50702L0 21.2164C0 25.3563 3.36716 28.7234 7.50723 28.7234H22.4928C26.6328 28.7234 30 25.3563 30 21.2164V7.50702C30 3.36707 26.6328 0 22.4928 0ZM2.64799 7.50702C2.64799 4.82742 4.82755 2.64791 7.50723 2.64791L22.4928 2.64791C25.1724 2.64791 27.352 4.82742 27.352 7.50702V21.2164C27.352 23.896 25.1724 26.0755 22.4928 26.0755H7.50723C4.82755 26.0755 2.64799 23.896 2.64799 21.2164L2.64799 7.50702Z" fill="black"/>
<path d="M14.9993 21.3459C18.8501 21.3459 21.983 18.213 21.983 14.3624C21.983 10.5118 18.8501 7.37891 14.9993 7.37891C11.1486 7.37891 8.01562 10.5118 8.01562 14.3624C8.01562 18.213 11.1486 21.3459 14.9993 21.3459ZM14.9993 10.0282C17.3897 10.0282 19.3337 11.9721 19.3337 14.3624C19.3337 16.7527 17.3897 18.6966 14.9993 18.6966C12.609 18.6966 10.665 16.7527 10.665 14.3624C10.665 11.9721 12.609 10.0282 14.9993 10.0282Z" fill="black"/>
<path d="M22.6306 8.50572C23.668 8.50572 24.5125 7.6612 24.5125 6.6238C24.5125 5.58641 23.668 4.74188 22.6306 4.74188C21.5931 4.74188 20.7486 5.58641 20.7486 6.6238C20.7486 7.6612 21.5931 8.50572 22.6306 8.50572Z" fill="black"/>
</svg>
