<svg width="22" height="22" viewBox="0 0 22 22" fill="none" xmlns="http://www.w3.org/2000/svg">
<g clip-path="url(#clip0_79_138)">
<path d="M11 16.5C7.96245 16.5 5.50002 14.0376 5.50002 11C5.50002 7.96245 7.96245 5.50002 11 5.50002C14.0376 5.50002 16.5 7.96245 16.5 11C16.5 14.0376 14.0376 16.5 11 16.5ZM11 14.6667C13.025 14.6667 14.6667 13.025 14.6667 11C14.6667 8.97497 13.025 7.33335 11 7.33335C8.97497 7.33335 7.33335 8.97497 7.33335 11C7.33335 13.025 8.97497 14.6667 11 14.6667ZM10.0834 0.916687H11.9167V3.66669H10.0834V0.916687ZM10.0834 18.3334H11.9167V21.0834H10.0834V18.3334ZM3.22185 4.51821L4.51821 3.22185L6.46275 5.16639L5.16639 6.46275L3.22185 4.51821ZM15.5372 16.8337L16.8337 15.5372L18.7782 17.4819L17.4819 18.7782L15.5372 16.8337ZM17.4819 3.22185L18.7782 4.51821L16.8337 6.46275L15.5372 5.16639L17.4819 3.22185ZM5.16639 15.5372L6.46275 16.8337L4.51821 18.7782L3.22185 17.4819L5.16639 15.5372ZM21.0834 10.0834V11.9167H18.3334V10.0834H21.0834ZM3.66669 10.0834V11.9167H0.916687V10.0834H3.66669Z" fill="black"/>
</g>
<defs>
<clipPath id="clip0_79_138">
<rect width="22" height="22" fill="white"/>
</clipPath>
</defs>
</svg>
