<svg width="30" height="30" viewBox="0 0 30 30" fill="none" xmlns="http://www.w3.org/2000/svg">
<path d="M1.05278 5.85391C0.350416 5.20162 0 4.39461 0 3.43438C0 2.47415 0.350416 1.63072 1.05278 0.978433C1.75515 0.326146 2.65926 0 3.76818 0C4.87711 0 5.74485 0.326146 6.4457 0.978433C7.14807 1.63072 7.49848 2.44988 7.49848 3.43438C7.49848 4.41888 7.14807 5.20162 6.4457 5.85391C5.74333 6.50619 4.85132 6.83233 3.76818 6.83233C2.68505 6.83233 1.75515 6.50619 1.05278 5.85391ZM6.90683 9.5947L6.90683 29.5835H0.591612L0.591612 9.5947H6.90683Z" fill="black"/>
<path d="M27.9353 11.5683C29.3112 13.0625 29.9999 15.1149 29.9999 17.7271V29.2316H24.0002V18.5387C24.0002 17.222 23.6589 16.198 22.9763 15.4684C22.2936 14.7387 21.3759 14.3747 20.2229 14.3747C19.07 14.3747 18.1522 14.7402 17.4695 15.4684C16.7869 16.198 16.4456 17.222 16.4456 18.5387V29.2316H10.411L10.411 9.54014H16.4456V12.1523C17.0569 11.2816 17.8807 10.5944 18.9168 10.0878C19.9513 9.58261 21.1164 9.32928 22.4104 9.32928C24.7163 9.32928 26.5578 10.0771 27.9338 11.5698L27.9353 11.5683Z" fill="black"/>
</svg>
