<svg width="512" height="512" viewBox="0 0 512 512" fill="none" xmlns="http://www.w3.org/2000/svg">
<g clip-path="url(#clip0_111_131)">
<path d="M482.333 358.4V119.467L275.399 0V91.733L356.467 138.667C359.667 140.799 359.667 145.067 356.467 146.134L260.467 201.601C257.267 203.733 254.067 202.667 251.933 201.601L155.933 146.134C152.733 145.067 152.733 139.734 155.933 138.667L237 91.733V0L29 119.467V358.4L107.933 312.533V218.666C107.933 215.466 112.2 213.334 114.333 214.4L210.333 269.867C213.533 272 214.6 274.134 214.6 277.334V388.266C214.6 391.466 210.333 393.601 208.2 392.533L127.134 345.6L48.2 391.467L255.133 512L462.067 392.533L383.133 346.666L302.067 393.601C298.867 395.733 295.667 393.601 295.667 389.333V278.4C295.667 275.2 297.799 272 299.933 270.933L395.934 215.466C399.133 213.334 402.333 215.466 402.333 219.733V313.6L482.333 358.4Z" fill="#C8C8C8"/>
<path d="M255.133 512L462.067 392.533L383.133 346.666L302.067 393.601C298.867 395.733 295.667 393.601 295.667 389.333V278.4C295.667 275.2 297.799 272 299.933 270.933L395.934 215.466C399.133 213.334 402.333 215.466 402.333 219.733V313.6L481.266 359.467V119.467L255.133 250.667V512Z" fill="white"/>
<path d="M275.4 0V91.733L356.467 138.667C359.667 140.799 359.667 145.067 356.467 146.134L260.467 201.601C257.267 203.733 254.067 202.667 251.933 201.601L155.933 146.134C152.733 145.067 152.733 139.734 155.933 138.667L237 91.733V0L29 119.467L255.133 250.667L481.266 119.467L275.4 0Z" fill="#E0E0E0"/>
<path d="M209.267 393.6L128.199 346.666L49.266 392.533L256.2 512V250.667L29 119.467V358.4L107.933 312.533V218.666C107.933 215.466 112.2 213.334 114.333 214.4L210.333 269.867C213.533 272 214.6 274.134 214.6 277.334V388.266C215.667 392.533 212.467 395.733 209.267 393.601V393.6Z" fill="#C8C8C8"/>
</g>
<defs>
<clipPath id="clip0_111_131">
<rect width="512" height="512" fill="white"/>
</clipPath>
</defs>
</svg>
